# xmcd CD database file
#
# Track frame offsets:
#	150
#	21489
#	39529
#	60244
#	80008
#	106522
#	128874
#	154247
#	177706
#	195711
#	202203
#	214372
#	232687
#	257751
#	278610
#	297100
#	317924
#	340460
#
# Disc length: 4776 seconds
#
# Revision: 1
# Processed by: cddbd v1.5.2PL0 Copyright (c) Steve Scherf et al.
# Submitted via: Feurio! 1.67 - http://www.feurio.com
#
DISCID=0f12a612
DTITLE=Willy De Ville - Unplugged In Berlin
DYEAR=2011
DGENRE=Blues
TTITLE0=Betty And Dupree
TTITLE1=It's Too Late She's Gone
TTITLE2=Spanish Harlem
TTITLE3=Trouble In Mind
TTITLE4=Storybook Love
TTITLE5=Big Blue Diamond
TTITLE6=Shake Sugaree
TTITLE7=Let It Be Me
TTITLE8=The Way We Make A Broken Heart
TTITLE9=Introduction Of The Band
TTITLE10=Hound Dog
TTITLE11=Junker's Blues
TTITLE12=You Better Move On
TTITLE13=Since I Met You Baby 
TTITLE14=I'm Blue So Blue
TTITLE15=Keep A Knocking - Sea Cruise
TTITLE16=Shake Rattle And Roll
TTITLE17=Heaven Stood Still
EXTD=2011
EXTT0=
EXTT1=
EXTT2=
EXTT3=
EXTT4=
EXTT5=
EXTT6=
EXTT7=
EXTT8=
EXTT9=
EXTT10=
EXTT11=
EXTT12=
EXTT13=
EXTT14=
EXTT15=
EXTT16=
EXTT17=
PLAYORDER=
